<svg width="231" height="119" viewBox="0 0 231 119" fill="none" xmlns="http://www.w3.org/2000/svg">
<path d="M231 55.6561C230.22 49.4296 213.15 51.3082 207.874 51.4508C207.599 51.4508 207.308 51.4033 207.131 51.1952C206.935 50.9848 206.95 50.6495 206.996 50.3594C207.712 47.3383 210.738 45.3599 211.687 42.5612C212.089 41.4805 211.743 39.9123 210.839 39.168C207.39 36.3158 199.613 43.4838 197.215 45.9734C195.404 47.8555 193.822 49.602 191.709 50.7089C191.292 50.9384 190.691 50.9824 190.789 50.4129C192.554 44.1639 200.494 23.7773 201.807 18.2345C202.058 16.6794 201.736 15.0613 200.878 13.7273C199.207 11.0605 196.455 10.5088 193.558 10.6325C188.484 10.6194 183.762 10.6682 179.749 10.6598C178.718 10.7657 178.27 9.81332 177.563 9.22004C177.275 8.96918 176.944 8.76468 176.594 8.61725C175.586 8.18448 174.481 8.29624 173.386 8.27603C172.889 8.26414 172.397 8.20351 171.899 8.17735C170.761 8.13098 169.635 8.29387 168.5 8.23085C167.559 8.20945 166.624 8.37471 165.652 8.31883C162.099 8.10126 160.906 8.41157 159.543 10.4375C159.393 10.6158 159.202 10.667 158.99 10.6598C158.487 10.6634 157.589 10.667 156.586 10.6682C145.742 10.6646 127.586 10.6491 117.904 10.6503C117.477 10.6563 117.088 10.5326 116.792 10.1759C116.427 9.72296 116.201 9.22717 115.871 8.7195C112.181 2.59413 105.715 -0.948876 99.2404 0.22222C92.7783 1.11629 89.0506 4.714 87.2289 9.99879C87.0007 10.5481 86.5634 10.7692 86.018 10.7716C80.951 10.7978 72.4344 10.7597 69.0738 10.7764C68.3905 10.7966 67.3817 10.8774 66.6615 11.0867C62.6106 12.2102 61.4092 15.8031 60.3659 18.9764C60.064 19.7968 59.8394 20.8513 59.5079 21.7454C59.2441 22.4493 58.8769 23.4908 58.6452 24.0662C58.4348 24.6107 58.1259 24.6666 57.7444 24.1922C56.8805 23.1816 55.6625 21.1783 54.6584 19.9739C53.8301 18.8575 52.3305 17.7185 50.7298 17.6626C46.2011 17.6365 24.0403 17.5354 19.5817 17.5402C19.3821 17.5485 19.0886 17.5842 18.7012 17.69C18.4908 17.747 18.2876 17.8196 18.0832 17.9087C16.5955 18.5341 15.7375 20.0631 15.0447 21.4601C14.6253 22.3018 14.2034 23.1377 13.7839 23.9794C13.4203 24.6952 13.0591 25.6356 12.5695 26.1884C11.9777 26.9089 11.0033 27.1408 10.1061 27.1586C8.41393 27.2157 6.21555 27.1479 4.41169 27.1741C3.59175 27.1788 2.7837 27.224 2.03269 27.5759C1.16165 27.9707 0.447475 28.7458 0.184857 29.6744C-0.194215 30.9049 0.332208 32.2056 0.756436 33.3482C1.05946 34.2125 1.3601 35.0151 1.66193 35.8592C1.88652 36.607 2.44028 37.5047 2.16815 38.2846C1.94832 38.7007 1.46348 38.9908 1.15809 39.3606C0.530657 40.0205 0.162279 40.8789 0.0410711 41.7575C-0.135988 43.038 0.306065 44.6418 1.00242 45.8319C1.2995 46.3705 1.74511 46.8901 1.87702 47.4976C2.0113 48.0671 1.77245 48.6485 1.65243 49.2061C1.49081 49.8529 1.49913 50.5068 1.64292 51.1263C1.78789 51.7742 2.08022 52.509 2.45929 53.1046C2.9061 53.7764 3.36479 54.5004 3.26497 55.341C3.21625 55.9355 3.09029 56.5347 3.16871 57.1327C3.32676 58.6225 4.30831 59.7603 5.35521 60.8041C5.67487 61.1727 5.81509 61.6079 5.74379 62.0941C5.2043 64.1201 5.56673 65.9035 7.20661 67.2945C9.13762 68.8829 6.7396 70.2668 9.27546 73.2546C9.57135 73.6149 9.94567 73.9442 10.1417 74.3686C10.3949 74.8787 10.3212 75.4791 10.3378 76.032C10.4519 79.6094 13.8766 80.8864 16.8248 81.35C17.5081 81.4297 17.9965 81.8862 18.195 82.5342C20.7867 89.82 26.3753 104.866 27.6789 108.547C27.9047 109.127 28.3479 110.034 28.7935 110.579C31.169 113.779 35.3792 113.423 38.9144 113.469C39.6001 113.505 40.3855 113.383 41.026 113.663C41.5667 113.908 41.8044 114.531 42.0397 115.049C42.4045 115.917 42.7776 116.758 43.3908 117.435C43.9564 118.068 44.7086 118.52 45.5191 118.762C46.5671 119.083 47.7008 119.07 48.7738 118.785C49.4274 118.624 50.0097 118.338 50.6882 118.352C51.2824 118.355 51.9134 118.585 52.504 118.686C53.7648 118.929 55.8039 118.612 56.8758 117.91C57.382 117.605 57.887 117.071 58.5061 117.048C59.0266 117.024 59.4734 117.391 59.8929 117.662C61.3343 118.669 63.1833 119.093 64.8969 118.779C67.2438 118.358 68.7126 116.851 69.6965 114.892C69.9461 114.395 70.4439 114.072 71.0001 114.042C94.9541 112.728 160.531 113.701 168.849 113.305C169.341 113.281 169.806 113.056 170.114 112.672C170.227 112.532 170.328 112.375 170.42 112.203C174.155 101.265 179.81 83.8076 183.803 72.099C184.055 71.3488 184.776 70.8827 185.576 70.891C191.568 71.0658 196.428 72.225 201.522 74.5529C203.062 75.2282 204.558 75.8857 206.136 76.5468C209.189 77.6858 214.829 80.5463 217.879 79.5429C220.298 78.5014 220.571 75.6456 218.882 73.2606C218.462 72.6055 217.927 72.0157 217.389 71.5116C216.32 70.4844 216.21 70.5997 217.358 70.7507C220.782 71.2073 230.914 72.6578 230.011 66.9818C229.45 65.4065 227.872 64.2366 226.383 63.3663C224.381 62.2166 223.089 61.5627 221.279 60.8814C221.194 60.8422 221.122 60.8053 221.074 60.7709C221.001 60.7185 220.982 60.6734 221.016 60.6377C221.049 60.6032 221.131 60.5771 221.246 60.5604C224.659 60.3571 230.914 60.3345 231.001 55.6775V55.6573L231 55.6561ZM174.268 9.80381C174.918 9.71583 175.648 9.84661 176.192 10.1664C176.405 10.2972 176.726 10.5195 176.663 10.7966C176.56 11.0569 176.034 11.0332 175.758 11.0474C175.092 11.0498 174.467 11.2341 173.94 11.6359C172.404 12.7809 171.781 14.9507 171.472 16.8399C171.435 17.0159 171.381 17.3345 171.246 17.3916C171.196 17.4189 171.116 17.3392 171.094 17.2964C171.023 17.1799 170.986 17.061 170.946 16.9172C170.275 14.2302 171.104 10.2675 174.244 9.80856L174.269 9.805L174.268 9.80381ZM170.94 9.70394C171.9 9.73842 171.051 10.7086 170.829 11.1295C170.119 12.4646 169.101 13.6238 168.482 15.0161C168.31 15.3823 168.164 15.7722 168.012 16.1515C167.915 16.356 167.795 16.7543 167.571 16.7234C167.419 16.6699 167.333 16.4285 167.279 16.2573C166.554 13.6262 167.855 9.90843 170.917 9.70394H170.94ZM167.533 9.83115C167.939 10.1343 167.157 11.0082 166.985 11.3363C166.432 12.1947 165.685 12.9176 165.187 13.8069C164.891 14.2873 164.708 14.8651 164.44 15.3502C163.965 15.9922 163.922 14.569 163.939 14.3063C163.968 12.6798 164.658 10.9749 166.12 10.1498C166.522 9.94172 167.082 9.65995 167.519 9.82402L167.532 9.83234L167.533 9.83115ZM164.086 9.8478C164.768 10.1272 163.809 11.0581 163.523 11.3375C163.115 11.7204 162.622 12.064 162.226 12.4979C161.91 12.838 161.648 13.2244 161.421 13.6286C161.237 13.9341 161.095 14.3324 160.86 14.5833C160.455 14.8996 160.477 13.7855 160.487 13.5691C160.535 11.6633 162.062 9.63022 164.067 9.84185L164.086 9.8478ZM159.483 12.8724C159.532 13.8426 159.572 14.9602 160.124 15.7627C160.42 16.2692 161.22 16.7305 161.661 16.1681C161.999 15.8816 162.298 13.8818 162.829 14.248C163.018 14.4882 163.035 14.8805 163.109 15.1813C163.311 16.0386 163.589 16.9041 164.387 17.2655C165.307 17.5972 165.487 16.3964 165.7 15.7782C165.916 15.1897 166.132 15.4465 166.258 15.8864C166.457 16.6033 166.691 17.3951 167.187 17.923C167.722 18.5341 168.513 18.5555 168.817 17.7126C169.012 17.325 169.263 15.8555 169.646 15.8055C169.776 15.8293 169.871 16.1943 169.971 16.5855C170.129 17.2334 170.323 17.816 170.65 18.357C170.959 18.8765 171.609 19.5958 172.231 19.2273C172.738 18.8385 172.658 18.005 172.742 17.4213C172.915 15.7485 173.535 12.3897 175.701 12.5098C180.687 12.4088 191.923 12.3564 195.988 12.5693C199.172 13.1816 200.765 16.3025 199.672 19.3117C196.839 27.7876 190.257 47.1089 188.628 51.9573C187.423 53.6718 184.598 53.9274 182.613 54.1759C172.504 55.0283 161.331 55.5598 151.51 56.0995C150.863 56.1186 150.112 56.2101 149.59 55.7678C149.171 55.4207 148.978 54.7858 148.766 54.2056C148.622 53.8025 148.478 53.3995 148.334 52.9976C147.636 51.0561 146.898 49.0159 146.186 47.0375C145.661 45.5668 145.061 43.9249 144.539 42.4673C144.292 41.9132 144.298 41.4198 144.613 40.8503C147.297 36.3657 148.749 28.4545 144.831 24.216C143.795 23.0972 142.319 22.2424 140.839 21.8619C137.005 20.8299 132.986 23.4599 130.708 26.5285C130.266 27.0516 129.718 27.4558 129.052 27.5212C127.216 27.6033 124.519 27.5308 122.714 27.5522C122.363 27.545 121.992 27.5783 121.688 27.3833C121.336 27.1539 121.199 26.6521 121.133 26.2396C120.865 24.6428 120.686 23.0711 120.335 21.5445C119.735 18.9455 119.357 16.3905 118.36 14.0067C118.162 13.4919 117.595 12.4516 118.043 12.467C122.148 12.4492 155.035 12.442 159.275 12.4694C159.37 12.486 159.439 12.5669 159.472 12.7749C159.477 12.7987 159.483 12.8498 159.484 12.8522L159.487 12.8689L159.483 12.8724ZM144.16 32.0178C144.01 31.843 143.782 31.9001 143.669 32.1426C143.55 32.3899 143.549 32.6788 143.525 32.9463C143.441 34.1888 142.551 36.6796 141.885 38.5046C138.515 47.2706 130.096 62.7813 125.115 73.3842C123.387 77.0604 122.637 81.0611 122.957 85.0975C123.143 88.1781 123.72 91.2431 124.195 94.2915C124.363 95.4186 124.566 96.56 124.624 97.7026C124.669 98.6834 124.263 98.6906 123.394 98.4706C121.888 98.1805 120.826 99.5038 121.155 100.928C121.186 101.148 121.235 101.322 121.216 101.514C121.209 101.57 121.18 101.627 121.117 101.63C118.88 100.362 116.116 91.0565 114.356 87.7584C114.166 87.3636 113.773 86.8572 113.309 86.982C112.938 87.0783 112.803 87.4564 112.703 87.7714C111.68 90.9031 109.2 99.1448 107.699 103.593C107.466 104.235 107.165 104.953 106.848 105.554C106.68 105.848 106.527 106.196 106.261 106.39C106.011 106.622 106.206 105.376 106.169 105.309C106.274 103.651 104.549 102.354 103.137 103.412C102.773 103.66 102.517 104.085 102.328 103.994C102.178 103.892 102.221 103.249 102.284 102.821C102.949 99.096 105.083 91.8043 105.903 88.5978C106.465 86.8607 105.169 86.8702 104.281 88.0259C101.026 91.9624 96.2244 97.9713 93.6636 99.7975C93.4901 99.9211 93.2964 100.048 93.1526 100.121C93.0528 100.171 92.9839 100.189 92.9768 100.146C92.9411 100.016 93.6553 99.1673 93.7753 98.1627C93.9357 97.1034 93.3915 96.1689 92.3422 95.9061C91.8562 95.7444 91.4534 95.8205 91.3214 95.5268C91.2252 95.3259 91.4201 94.8919 91.5532 94.6233C91.7849 94.1619 92.0404 93.6935 92.3208 93.187C93.1277 91.7341 94.0617 90.1743 94.8995 88.7654C96.1579 86.6491 97.3022 84.7183 98.6213 82.363C99.1025 81.4558 99.7383 80.5154 100.823 80.3585C101.343 80.2467 101.906 80.2467 102.338 79.984C102.903 79.6225 102.582 79.1886 101.93 79.1255C100.665 78.9401 98.1032 79.4929 96.4847 79.8567C94.7925 80.2087 93.0944 80.6795 91.3666 80.8245C90.896 80.8626 89.9145 80.8162 90.2389 80.3918C90.6251 80.0826 91.1884 80.0006 91.634 79.764C93.6339 78.8628 92.7379 77.033 94.8056 76.0403C97.5898 74.4281 100.779 73.3913 103.328 71.4011C105.58 69.601 107.383 66.6989 109.119 63.7812C110.636 61.2678 112.128 58.7021 113.643 56.1804C120.325 45.4099 127.374 30.7444 134.625 24.1482C139.201 20.8454 145.246 23.6822 146.069 29.6673C146.487 32.5552 145.903 35.6987 144.746 38.2977C144.627 38.5545 144.42 39.0348 144.141 39.1228C143.821 39.1846 143.736 38.6829 143.667 38.413C143.505 37.5891 143.796 35.6916 143.94 35.1613C144.148 34.3469 144.569 32.6265 144.166 32.0249L144.157 32.0154L144.16 32.0178ZM122.751 98.9177C123.729 98.7952 124.212 100.023 123.951 100.873C123.683 101.878 122.701 101.905 122.17 101.077C121.683 100.393 121.763 99.0806 122.73 98.92L122.752 98.9165L122.751 98.9177ZM105.344 105.777C105.149 106.479 104.316 107.679 103.552 106.895C103.012 106.272 103.069 105.248 103.287 104.482C103.433 103.881 104.002 103.248 104.664 103.538C105.475 103.893 105.593 105.005 105.351 105.753L105.344 105.775V105.777ZM90.9519 99.7131C90.151 99.0306 90.8033 97.3388 91.4712 96.7181C92.0035 96.1653 92.8045 96.3151 93.1265 96.988C93.3796 97.4969 93.2679 98.1449 92.9685 98.6751C92.5989 99.3041 91.7338 100.152 90.9685 99.7238L90.9519 99.7131ZM92.587 77.5252C92.7296 77.6406 92.6524 77.8843 92.587 78.0365C92.3422 78.5299 91.9417 78.8414 91.3927 79.0816C91.1515 79.1933 90.1403 79.5333 90.5681 78.9353C90.82 78.6298 92.1818 77.3338 92.5751 77.5169L92.587 77.5241V77.5252ZM90.6619 6.79225C92.9007 3.47513 96.8519 1.73573 100.776 1.6418C113.126 1.05685 118.837 15.6736 120.243 26.6593C120.29 27.1705 120.137 27.5438 119.609 27.551C116.305 27.5652 110.85 27.589 108.418 27.545C107.966 27.4891 107.786 27.0718 107.701 26.6117C107.058 21.4446 104.732 16.1681 102.583 12.9854C101.584 11.5254 100.479 9.80499 98.7686 9.15346C98.2862 8.98225 97.4662 8.91092 97.105 9.23669C96.7627 9.61714 97.351 9.96312 97.6801 10.0689C98.1828 10.2473 98.7235 10.403 99.1287 10.7383C99.282 10.862 99.5196 11.1283 99.238 11.2353C96.7722 11.3637 91.7694 11.2757 89.4285 11.2781C89.2882 11.2745 89.1278 11.2709 89.0102 11.2139C88.1475 10.881 90.2532 7.33559 90.6489 6.81008L90.6619 6.79106V6.79225ZM62.7449 16.6972C63.6777 14.3776 65.9509 12.7345 68.4381 12.5229C72.5199 12.4052 88.7274 12.5205 97.9261 12.4813C98.506 12.4825 99.0835 12.4789 99.6801 12.4848C99.8892 12.4896 100.1 12.5134 100.293 12.5895C100.538 12.6822 100.751 12.8689 100.919 13.09C103.243 16.501 105.729 20.6968 106.545 25.959C106.659 26.6949 106.641 27.4701 105.737 27.5284C105.069 27.5831 104.351 27.5498 103.682 27.5533C102.597 27.5831 102.038 27.2002 101.395 26.3656C99.648 24.1459 96.998 22.2852 94.0261 22.6859C93.3677 22.7429 92.713 22.9355 92.0582 22.8808C91.527 22.8392 91.0398 22.586 90.5597 22.3684C89.5901 21.9178 88.5146 21.7097 87.4784 21.8667C86.5242 21.988 85.5593 22.5479 84.6039 22.1485C83.2956 21.5267 81.948 21.208 80.509 21.6218C79.9065 21.7775 79.3254 22.0771 78.698 22.114C77.8234 22.1437 76.9369 21.7193 76.0611 21.8572C73.5039 22.1782 71.6441 24.6107 70.1718 26.8293C69.933 27.1729 69.5634 27.457 69.1986 27.5129C67.005 27.6235 63.8547 27.4142 61.6968 27.4344C61.4199 27.4309 61.1668 27.4214 60.8828 27.3702C60.0771 27.2347 59.4378 26.8257 59.8145 25.9067C60.7176 23.3314 61.8192 19.1417 62.7377 16.7162L62.7449 16.6984V16.6972ZM95.0171 27.419C93.6208 27.1241 92.6369 27.5831 91.6863 28.6293C90.0725 30.3295 89.3334 32.8595 87.0007 33.7393C86.3959 33.9534 85.6342 34.1983 85.0258 33.9486C84.8333 33.8202 85.1446 33.7144 85.2848 33.6858C85.9764 33.5551 86.8284 33.4611 87.2598 32.8904C87.5034 32.5861 87.5866 32.1581 87.4523 31.7883C87.1291 30.7551 85.2955 30.8526 85.9966 29.5258C88.965 24.5596 95.7467 21.17 100.355 26.4001C100.955 27.0302 101.214 27.5296 100.115 27.5308C99.1085 27.5581 97.875 27.5331 96.8792 27.5343C96.2613 27.5391 95.6517 27.5224 95.0397 27.4214L95.0159 27.4178L95.0171 27.419ZM83.797 31.7503C82.6753 33.5039 80.8156 35.1506 78.6279 34.8462C78.1335 34.7547 78.3819 34.6631 78.7039 34.6489C79.7223 34.6239 81.0746 34.4242 81.5915 33.4873C81.9171 32.913 81.7626 32.1604 81.2814 31.7158C81.0449 31.4863 80.7419 31.3353 80.4329 31.2236C80.0479 31.0821 79.607 30.9893 79.4086 30.7528C79.0557 30.295 79.588 29.6922 79.8495 29.2939C80.2761 28.6947 80.7633 28.0741 81.2695 27.4975C83.3823 25.1446 85.9004 22.9546 88.7713 22.926C90.1795 22.9736 91.6613 23.4694 89.7279 24.6357C87.8326 25.953 86.3234 27.6627 85.1434 29.5828C84.7049 30.2986 84.2783 31.0357 83.8101 31.7289L83.797 31.7491V31.7503ZM72.8443 34.2649C72.6459 33.989 74.2038 34.0604 74.388 33.9771C75.12 33.8535 75.8722 33.5134 76.0373 32.7906C76.2073 32.0891 75.5989 31.4162 74.9512 31.1915C74.5424 31.0167 73.9459 30.9668 73.6952 30.7076C73.3565 30.3485 73.6797 29.8004 73.8889 29.4295C75.65 26.5499 78.2464 23.1341 81.8328 22.5729C82.522 22.5087 83.6948 22.5028 84.1595 23.0639C84.2949 23.2708 84.2011 23.5336 83.9777 23.7725C81.9599 25.4834 80.1275 27.5034 78.7206 29.7766C78.2488 30.5138 77.827 31.3032 77.4419 32.0784C77.1769 32.6039 76.8513 33.0795 76.3808 33.4576C75.499 34.1685 73.896 34.8189 72.8503 34.2732L72.8432 34.266L72.8443 34.2649ZM69.9247 31.4328C69.9247 31.4079 69.9496 31.3983 69.9734 31.3841C70.1136 31.3044 70.5984 31.2117 70.9466 31.0571C71.7178 30.7432 72.0113 29.9562 71.3696 29.3272C71.1082 29.0395 70.6923 28.8077 70.6246 28.5176C70.5188 28.086 70.8409 27.6556 71.0761 27.306C72.5366 25.311 74.4937 23.0984 76.9119 22.9308C77.2459 22.9011 77.8602 22.989 77.6879 23.4373C77.6059 23.6334 77.4419 23.7939 77.2851 23.9497C75.5537 25.5417 73.9946 27.4963 72.9311 29.3308C72.6067 29.8896 72.2846 30.4579 71.7558 30.8621C71.3055 31.2176 70.4701 31.5731 69.927 31.4352V31.4316L69.9247 31.4328ZM70.1267 29.8397C70.3168 29.6577 71.3566 29.6185 71.2579 30.0251C71.0868 30.383 69.5147 30.4757 70.1088 29.8527L70.1267 29.8397ZM73.044 32.1486C73.6013 31.7075 74.5246 31.7265 75.1675 31.9916C75.6238 32.1842 75.6202 32.636 75.1675 32.8619C74.3725 33.2721 72.1159 33.1651 73.0273 32.1628L73.044 32.1474V32.1486ZM78.6671 32.2781C79.2826 31.8168 80.3866 31.7312 81.0104 32.233C81.399 32.554 81.2517 33.0842 80.8619 33.3268C80.3224 33.7203 78.6695 33.8903 78.3023 33.3113C78.1133 32.9535 78.3676 32.5278 78.6493 32.2924L78.6671 32.2781ZM85.2408 31.7954C85.6924 31.497 86.409 31.4899 86.889 31.7491C87.2004 31.925 87.1909 32.2413 86.895 32.4208C86.4862 32.6812 85.3561 32.8346 85.0269 32.4577C84.8677 32.2389 85.0269 31.9512 85.2218 31.8085L85.2408 31.7943V31.7954ZM1.89009 40.8741C2.22757 39.9396 2.91798 39.1014 3.50976 40.3117C3.87339 41.0739 4.1158 41.8681 4.63153 42.5493C4.95594 43.0011 5.3968 43.3376 5.85193 43.6015C7.11511 44.3446 10.08 45.6548 12.251 46.5191C12.9628 46.8021 13.7043 47.0922 14.4042 47.3645C15.3192 47.7319 16.3127 48.0398 17.1492 48.5796C18.1106 49.1776 18.8996 50.2702 18.7879 51.4449C18.7737 51.6018 18.7356 51.7849 18.6536 51.9074C18.4065 52.226 18.3221 50.9598 18.1747 50.7696C17.9335 50.1454 17.2229 49.8803 16.5967 50.0491C14.8237 50.4747 15.2586 52.6921 13.7982 52.1416C10.9225 50.9111 7.0545 48.9327 4.56974 47.3348C2.41651 46.1102 1.09273 43.1794 1.88058 40.8955L1.8889 40.8741H1.89009ZM16.3649 50.7351C16.9864 50.3487 17.4534 50.6328 17.4083 51.3498C17.3928 51.7671 17.2835 52.2653 16.9674 52.5114C16.5384 52.8657 15.8457 52.5779 15.7565 52.0358C15.6567 51.5471 15.9312 51.0109 16.3436 50.747L16.3638 50.7339L16.3649 50.7351ZM3.13069 49.1205C3.50382 47.6403 4.584 48.0648 5.56673 48.6664C10.3057 51.4366 14.043 53.1546 18.5384 54.7073C19.9168 55.196 21.3986 55.8594 21.7231 57.4347C21.8193 57.8425 21.8146 58.3169 21.6815 58.7354C21.3773 59.5249 21.2703 58.9244 21.2549 58.2765C21.2442 56.7047 20.0202 55.964 18.6453 56.738C18.5075 56.82 18.378 56.9187 18.2615 57.0281C17.5556 57.6773 17.4689 58.6688 16.75 58.7877C16.4089 58.8424 15.9811 58.6795 15.5818 58.5166C12.7192 57.3408 8.80727 55.6703 6.51857 54.4909C4.56736 53.5588 2.7326 51.3854 3.12594 49.1455L3.13188 49.1217L3.13069 49.1205ZM19.1397 57.1078C20.404 56.5858 20.5145 57.9305 20.1604 58.7913C19.8645 59.677 18.5051 59.5379 18.2223 58.7366C18.031 58.0815 18.5324 57.3776 19.1171 57.1173L19.1385 57.1078H19.1397ZM4.72659 55.7607C4.91078 55.0485 5.55723 54.9201 6.15138 55.2162C8.52682 56.2862 11.9349 57.7819 14.6276 58.8781C16.5171 59.6568 17.8468 60.1395 19.7243 60.6888C20.4634 60.9195 21.2608 61.124 21.7599 61.7553C22.1687 62.2606 22.3612 62.9763 22.2744 63.6362C22.2602 63.7788 22.1413 64.3186 21.9512 64.1522C21.8561 64.0523 21.8193 63.6909 21.7587 63.3603C21.5733 61.8682 19.9655 61.5698 18.9412 62.4734C18.0024 63.3235 18.1641 64.9571 16.4588 64.3721C13.5332 63.5506 9.58086 61.9253 6.54947 59.7686C5.39205 58.8602 4.4307 57.2885 4.71828 55.7833L4.72422 55.7619L4.72659 55.7607ZM19.6875 62.7659C20.4825 62.3937 20.9518 62.899 20.8378 63.7515C20.7855 64.6824 19.9239 65.0962 19.1848 64.5802C18.536 64.0737 19.0422 63.0607 19.6661 62.7766L19.6875 62.7659ZM7.0747 62.861C7.30048 61.8016 8.08834 61.6304 8.95937 62.0632C11.2219 63.1963 13.6152 64.3044 16.0952 65.0225C16.9175 65.2591 17.7363 65.4814 18.5514 65.737C19.615 66.1234 20.9815 66.2578 21.647 67.2933C22.0784 67.9817 22.2269 68.9852 21.8324 69.7366C21.344 70.4844 21.3321 69.2776 21.3202 68.9412C21.2988 68.5726 21.2335 68.204 21.0457 67.883C20.4504 66.8201 18.9412 66.939 18.3328 67.9258C17.7291 68.8163 17.9288 70.2954 16.4208 69.9161C13.6318 69.1671 10.8333 68.1042 8.53158 66.4278C7.52151 65.5943 6.83229 64.2092 7.06876 62.8848L7.07352 62.861H7.0747ZM19.4379 70.1551C18.3078 70.1182 18.4742 68.1529 19.4569 67.9009C20.8247 67.5382 20.5122 70.1087 19.4593 70.1539H19.4379V70.1551ZM9.65216 69.387C10.0621 68.5393 11.1257 68.8734 11.8089 69.1623C13.8814 70.0041 16.0964 70.6604 18.1759 71.0242C18.9115 71.1585 19.6815 71.2667 20.328 71.6721C21.0517 72.1275 21.628 72.911 21.6327 73.7896C21.6506 73.9585 21.5472 74.5553 21.3321 74.2165C21.2073 73.9763 21.1598 73.6921 21.0635 73.4341C20.7177 72.2678 19.3143 72.0419 18.6061 73.0204C18.1712 73.5483 18.2068 74.5042 17.7422 74.931C17.2467 75.3162 16.5171 75.038 15.949 74.9369C14.0085 74.4471 11.0354 73.534 10.0158 71.7031C9.64028 71.0337 9.33012 70.1456 9.64146 69.4061L9.65097 69.387H9.65216ZM19.899 75.107C19.6447 75.2817 19.2644 75.1759 19.1064 74.9144C18.7998 74.4435 18.9365 73.5685 19.4142 73.2784C20.3351 72.7945 20.4147 74.7443 19.9156 75.0951L19.899 75.107ZM11.9551 75.3341C12.4186 74.4114 13.6009 75.038 14.3317 75.2544C14.876 75.4351 15.4321 75.5909 15.9906 75.7216C16.9068 75.9571 17.8694 75.9785 18.7428 76.3732C19.6875 76.8048 20.3767 77.7511 20.5062 78.782C20.5621 79.0804 20.4563 79.8532 20.1889 79.3312C20.1271 79.1993 20.0749 79.0031 20.0238 78.8117C19.899 78.3373 19.6946 77.8439 19.2454 77.6049C18.7653 77.341 18.1557 77.5205 17.8194 77.9509C17.4879 78.3397 17.4273 78.8949 17.1908 79.3277C16.9068 79.8686 16.2687 79.7593 15.7815 79.6166C14.7132 79.33 13.5415 78.9722 12.7846 78.0995C12.1773 77.3743 11.6105 76.303 11.948 75.3531L11.9563 75.3329L11.9551 75.3341ZM18.4742 78.3313C19.1278 77.8903 19.3108 79.5976 18.9186 79.8401C18.7344 79.959 18.492 79.8472 18.3744 79.682C18.1094 79.3098 18.1118 78.6559 18.4576 78.3444L18.4742 78.3313ZM48.4946 117.422C47.3241 117.58 45.9813 117.39 45.0069 116.665C43.9885 115.899 43.5405 114.667 43.0676 113.511C42.294 111.58 41.6297 109.551 41.0973 107.57C40.9809 107.13 40.9417 106.801 41.0819 106.417C41.2696 105.874 42.0729 105.931 42.6029 105.513C42.7907 105.369 42.9523 105.186 43.0569 104.974C43.304 104.501 43.0497 103.827 43.0081 103.331C42.9986 103.155 43.007 102.965 43.089 102.811C43.4609 102.268 44.1085 102.558 44.3093 103.016C44.446 103.299 44.5078 103.602 44.5589 103.89C45.0853 107.29 46.2986 111.782 48.4637 115.029C49.3252 116.308 50.8356 117.008 48.5172 117.422L48.4946 117.426V117.422ZM41.6321 102.001C41.8674 102.739 42.3629 103.62 42.2678 104.428C42.1716 105.025 41.4954 105.243 41.1306 104.732C40.9785 104.535 40.8858 104.277 40.811 104.036C40.3344 102.444 39.9601 100.544 39.7332 98.9961C39.7201 98.8249 39.5704 98.1104 39.789 98.1163C39.9364 98.1484 40.2406 98.7679 40.3796 99.0413C40.8585 99.9806 41.2673 101.008 41.6238 101.979L41.6321 102.002V102.001ZM46.6967 99.0354C46.9427 99.757 47.6152 101.007 47.2635 101.758C47.1031 102.074 46.705 102.254 46.3723 102.136C45.9754 102.002 45.7947 101.545 45.6759 101.162C45.1637 99.1864 44.5981 96.9904 44.345 95.012C44.3379 94.8598 44.2939 94.4746 44.4615 94.4984C44.6587 94.5721 44.9926 95.2676 45.1578 95.5601C45.7413 96.6492 46.2392 97.8892 46.6872 99.0152L46.6955 99.0366L46.6967 99.0354ZM54.5146 117.319C49.3122 118.088 47.3289 110.006 46.0597 104.985C45.9777 104.635 45.8672 104.204 46.0003 103.876C46.194 103.398 46.7418 103.363 47.2397 103.138C47.5166 103.021 47.7864 102.861 47.9907 102.639C48.8511 101.815 47.563 99.5621 48.1476 99.4646C49.3537 99.7856 50.1784 102.322 50.573 103.421C51.2966 105.457 51.9692 107.495 52.6905 109.555C53.1991 110.807 53.684 112.953 55.0553 113.464C55.5865 113.665 56.2151 113.427 56.6654 113.692C57.0065 113.886 57.2358 114.35 57.2798 114.795C57.3689 116.211 55.7243 117.065 54.536 117.315L54.5146 117.319ZM63.8155 117.373C56.2602 117.658 55.3868 105.928 54.9483 100.336C54.959 100.122 54.902 99.3968 55.2193 99.5014C55.4094 99.5882 55.5781 99.782 55.7635 99.9021C56.5514 100.45 57.956 100.184 58.3374 99.2577C58.5275 98.8107 58.4503 98.2257 58.4241 97.6966C58.3671 97.0629 58.5442 96.3448 59.2144 96.7181C61.2226 98.0212 61.1668 100.769 61.4757 102.955C61.8192 105.647 61.9938 109.292 62.6379 111.542C62.7258 111.84 62.8245 112.112 62.9825 112.397C63.7098 113.632 64.0235 113.882 65.257 113.61C65.6218 113.552 65.9925 113.55 66.3621 113.55C67.1143 113.55 68.3454 113.463 67.8451 114.551C67.1844 116.16 65.7941 117.278 63.8393 117.372H63.8143L63.8155 117.373ZM57.1705 96.4185C57.275 96.9036 57.3903 97.422 57.4616 97.9665C57.5103 98.3636 57.5389 98.7869 57.3749 99.096C57.2121 99.4277 56.7736 99.5811 56.4539 99.392C56.1212 99.2078 56.0059 98.775 55.9513 98.41C55.7267 96.3329 55.5235 94.0454 55.5841 92.01C55.6019 91.8626 55.6102 91.4833 55.7611 91.519C55.9311 91.6212 56.1343 92.3726 56.2424 92.6841C56.6274 93.8695 56.909 95.2011 57.1657 96.3971L57.1705 96.4197V96.4185ZM63.6266 111.017C62.8732 108.401 62.9516 105.797 62.6082 103.084C62.3147 100.343 61.9927 97.0653 59.4996 95.7266C58.9054 95.4079 58.2316 95.1309 57.8561 94.5448C57.1431 93.4331 57.0184 91.8697 56.2674 90.739C55.8954 90.1481 55.0897 89.9805 54.8331 90.7842C54.3459 92.5165 54.8402 94.389 54.5716 96.1641C54.4564 96.9012 54.1153 97.5813 53.9442 98.2828C53.6317 99.6215 53.7303 101.052 53.867 102.41C54.0999 104.545 54.3161 106.375 54.8782 108.714C54.9959 109.482 55.6007 110.72 55.0886 111.267C54.8806 111.395 54.6631 111.236 54.4564 110.992C53.0672 108.241 52.4339 105.098 51.2729 102.231C50.8962 101.253 50.4399 100.277 49.7506 99.4812C49.0103 98.5229 47.7412 98.1698 46.9949 97.2258C46.257 96.2414 45.8577 94.9371 45.0877 94.0014C44.3093 93.0337 43.3183 93.0111 43.4027 94.4699C43.3017 96.1938 44.6789 99.373 43.4906 100.688C41.8899 101.606 41.2114 98.435 40.3748 97.5837C39.7046 96.7336 38.7944 96.5208 38.7504 97.806C38.6672 99.612 39.3897 101.764 39.467 103.585C39.5026 105.489 39.9566 107.325 40.4782 109.163C40.6006 109.846 41.2601 111.137 40.6957 111.561C40.3107 111.788 39.5882 111.763 39.101 111.762C38.2763 111.757 37.3126 111.76 36.4784 111.759C33.7773 111.892 31.15 111.548 29.7109 108.949C26.5583 101.054 22.6274 89.3052 19.8919 82.0051C19.4688 81.0469 20.6536 80.79 21.1016 80.066C21.9643 78.7891 20.9102 77.5954 21.1135 76.4576C21.2691 75.8334 22.2412 75.315 22.4491 74.4483C22.9577 73.2023 21.7349 71.9884 22.2614 70.7793C24.2672 67.2874 21.4402 67.1483 22.9197 64.5386C23.786 62.603 22.7486 61.7743 22.3921 60.1716C22.3814 58.6439 23.218 57.7581 22.3778 56.1043C21.3476 53.8608 18.7558 54.2793 19.3583 52.6112C19.6221 51.9276 19.8681 51.1881 19.7291 50.464C19.2775 47.6106 16.1641 46.7641 13.8243 45.933C11.4798 45.0615 8.99383 44.1674 6.73841 43.0213C6.34746 42.8204 5.9363 42.5541 5.68438 42.2354C4.4818 39.9467 3.37905 35.8437 2.33333 33.2697C1.53716 31.5315 1.47655 29.3843 3.77832 28.8398C5.20905 28.6436 6.67424 28.7827 8.10497 28.7411C9.49768 28.6995 11.1494 28.9337 12.4613 28.3107C13.8493 27.6901 14.491 26.1349 15.1303 24.8461C15.6175 23.8653 16.119 22.8832 16.5955 21.9226C16.8926 21.3352 17.1694 20.7301 17.6139 20.2355C18.8271 18.8099 20.9007 19.3117 22.5822 19.2356C30.3918 19.3176 46.926 19.0739 51.021 19.2998C51.2503 19.2998 51.7446 19.5162 52.0441 19.6993C52.9175 20.2319 53.4534 21.1307 54.063 21.9154C54.7927 22.888 55.5461 23.8891 56.2804 24.8675C57.2133 26.0256 57.8062 27.482 59.0884 28.2703C59.7218 28.6567 60.4538 28.797 61.1822 28.8231C62.9932 28.8921 65.4328 28.8564 67.2973 28.8588C68.7565 28.8207 69.0406 29.055 68.7791 30.4769C68.6627 31.3306 69.1713 32.1593 69.9912 32.4244C70.4261 32.5861 70.9252 32.699 71.2271 33.0652C71.5681 33.4588 71.656 34.1032 71.9828 34.5573C72.6233 35.4942 73.9019 35.6702 74.9429 35.4538C75.568 35.3361 76.1906 35.09 76.7991 35.1803C77.2958 35.2469 77.7604 35.5037 78.2274 35.6844C79.1947 36.0661 80.2535 36.0447 81.2493 35.6595C82.2689 35.2743 83.1958 34.3314 84.3544 34.7844C85.4215 35.2089 86.6062 35.2231 87.6793 34.7856C90.6667 33.9046 91.3333 29.7517 93.5198 29.2404C105.447 29.2642 118.495 29.0026 127.62 29.1311C127.863 29.1513 128.081 29.1584 128.225 29.3046C128.375 29.4544 128.321 29.7303 128.153 30.0287C121.028 40.4271 113.647 54.6074 106.486 66.0354C105.006 68.3158 103.5 70.1836 101.256 71.4986C98.083 73.2879 94.1282 74.736 91.098 77.0354C89.2728 78.4205 87.9134 80.2538 89.7945 81.5522C91.1848 82.3582 93.6006 81.6604 95.3558 81.2668C96.0153 81.1955 97.5851 80.5309 97.7265 81.3774C97.7324 81.7685 97.509 82.1645 97.3236 82.5092C96.9315 83.2167 96.5358 83.8943 96.1603 84.5435C94.0783 88.5835 88.422 95.8098 89.413 99.6512C92.2281 105.177 98.4573 96.824 100.701 94.2273C101.695 93.0218 102.629 91.8507 103.471 90.8995C103.847 90.4442 104.26 90.2551 104.085 91.0779C103.175 94.7481 102.14 98.3256 101.441 101.442C100.877 104.068 101.031 108.452 104.583 108.427C108.073 108.208 109.058 103.23 109.955 100.702C111.062 97.3055 112.073 93.357 113.344 90.0685C113.758 88.9984 114.237 90.0899 114.441 90.5987C116.335 94.7374 117.539 99.4693 120.241 102.236C121.444 103.213 123.248 103.646 124.51 102.618C125.895 101.299 125.885 99.2672 125.812 97.3792C125.533 94.0621 124.74 90.6772 124.382 87.3874C123.563 81.7341 124.459 76.844 127.075 71.9694C130.265 65.4612 140.401 45.8926 141.904 42.5576C141.972 42.4435 142.4 41.792 142.975 43.4743C144.115 46.7355 146.074 52.0049 147.408 55.775C153.258 72.0811 156.215 80.0137 166.77 109.648C167.145 110.769 167.412 111.533 166.561 111.533C152.888 111.533 117.998 111.518 89.962 111.747C75.4254 111.866 67.6372 112.435 64.5998 112.078C64.2338 112.035 63.9237 111.79 63.7941 111.444L63.6313 111.009L63.6266 111.017ZM155.225 72.2357C155.116 71.9373 155.279 71.6056 155.583 71.514C155.748 71.4653 155.922 71.4249 156.112 71.4023C164.427 70.8328 174.091 70.3394 180.842 70.5034C181.575 70.5106 182.052 70.8137 182.163 71.6008C180.154 77.3315 173.182 99.7511 169.478 109.321C169.135 110.096 168.819 109.628 168.626 109.041C164.943 99.115 156.89 76.8059 155.224 72.2357H155.225ZM228.868 57.1363C227.065 59.2835 221.165 59.1991 218.094 59.1801C217.055 59.1515 215.961 59.0957 214.886 59.0207C214.253 58.9934 213.628 58.8805 213.054 58.9078C212.395 58.9613 212.18 59.6723 212.773 60.0135C212.976 60.1348 213.221 60.193 213.479 60.262C213.94 60.3833 214.558 60.5521 215.061 60.6936C217.616 61.4271 220.464 62.3557 222.936 63.4673C224.43 64.1641 229.118 66.3778 227.936 68.4121C226.757 70.0516 221.643 69.7187 217.775 69.2301C215.406 68.9257 213.687 68.6321 211.493 68.2076C210.61 68.0578 209.692 67.7939 208.791 67.6773C208.178 67.6191 207.887 68.1434 208.341 68.6071C208.658 68.9352 209.143 69.1029 209.561 69.2788C209.908 69.4191 210.259 69.5654 210.64 69.7318C213.822 71.1764 218.769 73.7326 217.846 77.1496C217.62 77.9426 216.905 78.3694 216.105 78.2826C214.324 78.1625 212.415 77.3838 210.72 76.7394C208.634 75.9297 206.472 74.9786 204.451 74.1059C191.505 67.9449 183.719 68.5167 162.838 69.8281C160.22 69.9423 157.637 70.2692 155.058 70.2823C154.302 69.8828 153.998 69.3811 153.753 68.613C152.763 65.7394 150.867 61.0491 150.012 58.1742C149.991 57.9388 150.053 57.7034 150.235 57.5465C150.407 57.3883 150.69 57.3016 151.002 57.2623C160.133 56.7261 171.145 56.2232 179.136 55.7334C186.429 55.4135 192.64 53.6646 197.499 47.9839C198.087 47.3669 198.674 46.7641 199.304 46.1577C200.738 44.7797 202.234 43.4886 203.749 42.409C205.185 41.4293 207.215 40.0966 208.747 40.1132C209.682 40.1084 210.528 40.8182 210.297 41.8015C210.166 42.5101 209.723 43.2579 209.318 43.8904C208.639 44.9343 207.839 45.9401 207.122 46.9579C203.964 50.8932 205.687 54.5254 202.287 57.4549C202.088 57.6261 201.891 57.7831 201.782 58.0006C201.665 58.2277 201.798 58.4144 202.053 58.393C202.732 58.3038 203.4 57.6499 203.851 57.1708C204.292 56.6714 205.384 55.4028 205.687 54.5254C205.852 54.07 206 53.5291 206.417 53.2473C206.709 53.0452 207.038 53.0155 207.369 52.9881C209.155 52.8502 212.688 52.6719 215.272 52.6576C219.148 52.6707 231.406 52.6719 228.876 57.1173L228.865 57.1327L228.868 57.1363Z" fill="#56565B"/>
</svg>
